<?xml version="1.0" encoding="UTF-8"?>
<svg xmlns="http://www.w3.org/2000/svg" viewBox="0 0 24 24" width="24" height="24">
  <path fill="#C28F2B" d="M7.1 7.2c-.4.8-.7 1.7-.7 2.7s.3 1.9.7 2.7V7.2z"/>
  <path fill="#C28F2B" d="M12.6 4.6c-.5 0-.9 0-1.4.2v.9c.4-.1.9-.2 1.4-.2 2.7 0 4.9 2.2 4.9 4.8 0 1.2-.4 2.3-1.2 3.1l-.1.5-.3 1.1c1.5-1 2.5-2.8 2.5-4.7 0-3.1-2.6-5.7-5.8-5.7z"/>
  <path fill="#C28F2B" d="M11.2 13.3h4.5c.8-.8 1.2-1.8 1.2-3 0-2.4-2-4.3-4.4-4.3-.5 0-.9.1-1.4.2v7.1z"/>
  <path fill="#C28F2B" d="M10.7 4.6H7.4l.6 1.3v9.8l-.6 1.3h7.6l.7-2.4h-4.9V4.6z"/>
</svg>